<svg width="320" height="320" viewBox="0 0 320 320" fill="none" xmlns="http://www.w3.org/2000/svg">
<g filter="url(#filter0_d)">
<rect x="40" y="40" width="240" height="240" rx="40" fill="white"/>
</g>
<path d="M68.7793 251H71.8513V238.808L76.8433 251H78.4513L83.4193 238.832V251H86.4913V234.2H82.5073L77.6353 246.416L72.7873 234.2H68.7793V251Z" fill="black"/>
<path d="M91.1089 237.008C92.1169 237.008 92.9569 236.216 92.9569 235.208C92.9569 234.2 92.1169 233.408 91.1089 233.408C90.0769 233.408 89.2609 234.2 89.2609 235.208C89.2609 236.216 90.0769 237.008 91.1089 237.008ZM89.4769 251H92.7649V238.448H89.4769V251Z" fill="black"/>
<path d="M100.414 251.144H103.27V248.672H101.662C100.942 248.672 100.678 248.384 100.678 247.664V240.848H103.654V238.448H100.678V235.328H97.9175L97.3655 238.448H95.0855V240.848H97.3655V248.384C97.3655 250.16 98.5415 251.144 100.414 251.144Z" fill="black"/>
<path d="M105.907 251H109.171V244.448C109.171 242.264 110.083 240.968 111.955 240.968C112.483 240.968 113.035 241.064 113.539 241.352L114.523 239.048C113.899 238.568 113.107 238.304 112.195 238.304C110.635 238.304 109.411 239.168 108.859 240.536L108.691 238.448H105.907V251Z" fill="black"/>
<path d="M119.373 251.288C121.341 251.288 122.925 250.52 123.621 249.056L123.789 251H126.573V242.504C126.573 239.816 124.509 238.16 121.221 238.16C118.221 238.16 115.989 239.816 115.869 242.408H118.845C118.965 241.16 119.853 240.44 121.125 240.44C122.349 240.44 123.285 241.136 123.285 242.288V242.816L119.613 243.68C117.141 244.232 115.245 245.192 115.245 247.688C115.245 249.848 116.829 251.288 119.373 251.288ZM118.245 247.352C118.245 246.752 118.821 245.84 120.045 245.552L123.285 244.784V246.128C123.285 247.784 122.157 249.008 120.381 249.008C118.965 249.008 118.245 248.336 118.245 247.352Z" fill="black"/>
<path d="M133.842 251H141.45C144.762 251 146.922 249.248 146.922 246.464C146.922 244.424 145.698 242.96 143.418 242.504C145.362 241.952 146.394 240.632 146.394 238.736C146.394 236 144.354 234.2 141.354 234.2H133.842V251ZM137.154 241.328V236.744H140.394C141.978 236.744 143.01 237.632 143.01 239.048C143.01 240.44 141.978 241.328 140.394 241.328H137.154ZM137.154 248.456V243.872H140.994C142.578 243.872 143.61 244.76 143.61 246.152C143.61 247.544 142.578 248.456 140.994 248.456H137.154Z" fill="black"/>
<path d="M153.871 251.288C155.695 251.288 157.111 250.4 157.711 248.888L157.879 251H160.687V238.448H157.399V245.648C157.399 247.496 156.463 248.648 154.927 248.648C153.439 248.648 152.575 247.736 152.575 246.176V238.448H149.287V246.68C149.287 249.416 151.135 251.288 153.871 251.288Z" fill="black"/>
<path d="M163.678 251H166.966V246.68L168.334 245.24L171.886 251H175.39L170.662 243.272L175.27 238.448H171.598L166.966 243.08V234.2H163.678V251Z" fill="black"/>
<path d="M180.943 251.288C182.911 251.288 184.495 250.52 185.191 249.056L185.359 251H188.143V242.504C188.143 239.816 186.079 238.16 182.791 238.16C179.791 238.16 177.559 239.816 177.439 242.408H180.415C180.535 241.16 181.423 240.44 182.695 240.44C183.919 240.44 184.855 241.136 184.855 242.288V242.816L181.183 243.68C178.711 244.232 176.815 245.192 176.815 247.688C176.815 249.848 178.399 251.288 180.943 251.288ZM179.815 247.352C179.815 246.752 180.391 245.84 181.615 245.552L184.855 244.784V246.128C184.855 247.784 183.727 249.008 181.951 249.008C180.535 249.008 179.815 248.336 179.815 247.352Z" fill="black"/>
<path d="M193.454 251.144H195.902V248.672H195.134C194.558 248.672 194.294 248.384 194.294 247.784V234.2H191.006V248.72C191.006 250.256 191.918 251.144 193.454 251.144Z" fill="black"/>
<path d="M201.709 251.288C203.677 251.288 205.261 250.52 205.957 249.056L206.125 251H208.909V242.504C208.909 239.816 206.845 238.16 203.557 238.16C200.557 238.16 198.325 239.816 198.205 242.408H201.181C201.301 241.16 202.189 240.44 203.461 240.44C204.685 240.44 205.621 241.136 205.621 242.288V242.816L201.949 243.68C199.477 244.232 197.581 245.192 197.581 247.688C197.581 249.848 199.165 251.288 201.709 251.288ZM200.581 247.352C200.581 246.752 201.157 245.84 202.381 245.552L205.621 244.784V246.128C205.621 247.784 204.493 249.008 202.717 249.008C201.301 249.008 200.581 248.336 200.581 247.352Z" fill="black"/>
<path d="M211.891 255.56H215.155V249.296C215.947 250.568 217.315 251.288 219.067 251.288C222.355 251.288 224.491 248.72 224.491 244.736C224.491 240.728 222.379 238.16 219.067 238.16C217.051 238.16 215.563 239.072 214.867 240.68L214.675 238.448H211.891V255.56ZM218.179 248.648C216.307 248.648 215.155 247.16 215.155 244.736C215.155 242.288 216.307 240.824 218.179 240.824C220.027 240.824 221.203 242.312 221.203 244.736C221.203 247.16 220.027 248.648 218.179 248.648Z" fill="black"/>
<path d="M230.419 251.288C232.387 251.288 233.971 250.52 234.667 249.056L234.835 251H237.619V242.504C237.619 239.816 235.555 238.16 232.267 238.16C229.267 238.16 227.035 239.816 226.915 242.408H229.891C230.011 241.16 230.899 240.44 232.171 240.44C233.395 240.44 234.331 241.136 234.331 242.288V242.816L230.659 243.68C228.187 244.232 226.291 245.192 226.291 247.688C226.291 249.848 227.875 251.288 230.419 251.288ZM229.291 247.352C229.291 246.752 229.867 245.84 231.091 245.552L234.331 244.784V246.128C234.331 247.784 233.203 249.008 231.427 249.008C230.011 249.008 229.291 248.336 229.291 247.352Z" fill="black"/>
<path d="M240.482 251H243.77V246.68L245.138 245.24L248.69 251H252.194L247.466 243.272L252.074 238.448H248.402L243.77 243.08V234.2H240.482V251Z" fill="black"/>
<rect x="90" y="64" width="140" height="140" fill="white"/>
<path d="M102.037 181.717C101.91 183.285 102.112 184.862 102.629 186.349C103.146 187.836 103.966 189.199 105.039 190.354C106.112 191.508 107.414 192.428 108.862 193.056C110.31 193.683 111.873 194.005 113.452 194H128.978C130.561 194.005 132.128 193.683 133.58 193.052C135.031 192.422 136.335 191.498 137.409 190.338C138.482 189.179 139.302 187.81 139.816 186.317C140.33 184.825 140.526 183.243 140.393 181.671L139.115 165.475C139.076 165.02 138.935 164.579 138.701 164.185C138.468 163.791 138.149 163.455 137.768 163.201L109.754 144.366C109.274 144.045 108.718 143.856 108.142 143.817C107.566 143.778 106.989 143.891 106.471 144.145C105.952 144.399 105.51 144.784 105.188 145.262C104.867 145.74 104.678 146.294 104.639 146.869L102.037 181.717Z" fill="#F5A0A5"/>
<path d="M177.994 181.717C177.867 183.285 178.069 184.863 178.586 186.349C179.103 187.836 179.923 189.2 180.996 190.354C182.069 191.509 183.371 192.429 184.819 193.056C186.267 193.684 187.83 194.005 189.409 194H204.912C206.495 194.006 208.062 193.683 209.514 193.053C210.965 192.423 212.269 191.498 213.343 190.339C214.417 189.179 215.236 187.81 215.75 186.318C216.264 184.826 216.461 183.243 216.328 181.672L212.355 131.037C212.313 130.49 212.118 129.966 211.793 129.524C211.467 129.082 211.023 128.74 210.512 128.536C210.001 128.332 209.443 128.275 208.901 128.372C208.359 128.468 207.855 128.714 207.446 129.081L180.962 153.102C180.396 153.586 180.044 154.272 179.98 155.012L177.994 181.717Z" fill="#F5A0A5"/>
<path d="M214.392 90.0475L201.127 77.4685C195.145 72.1457 188.319 73.0784 184.072 79.3792L151.24 122.917L126.628 105.129C121.377 101.421 117.107 100.784 112.564 106.493L104.664 116.707C103.853 117.75 103.266 118.948 102.94 120.227C102.615 121.506 102.557 122.838 102.771 124.14C102.986 125.442 103.467 126.686 104.186 127.795C104.904 128.903 105.844 129.852 106.947 130.582L145.761 156.468C148.312 158.576 151.574 159.636 154.882 159.433C158.19 159.23 161.296 157.779 163.569 155.376L214.164 109.883C215.554 108.635 216.669 107.114 217.44 105.416C218.21 103.718 218.619 101.879 218.641 100.015C218.662 98.1512 218.296 96.3033 217.564 94.5878C216.833 92.8722 215.753 91.3263 214.392 90.0475V90.0475Z" fill="#E52555"/>
<defs>
<filter id="filter0_d" x="0" y="0" width="320" height="320" filterUnits="userSpaceOnUse" color-interpolation-filters="sRGB">
<feFlood flood-opacity="0" result="BackgroundImageFix"/>
<feColorMatrix in="SourceAlpha" type="matrix" values="0 0 0 0 0 0 0 0 0 0 0 0 0 0 0 0 0 0 127 0" result="hardAlpha"/>
<feOffset/>
<feGaussianBlur stdDeviation="20"/>
<feColorMatrix type="matrix" values="0 0 0 0 0 0 0 0 0 0 0 0 0 0 0 0 0 0 0.12 0"/>
<feBlend mode="normal" in2="BackgroundImageFix" result="effect1_dropShadow"/>
<feBlend mode="normal" in="SourceGraphic" in2="effect1_dropShadow" result="shape"/>
</filter>
</defs>
</svg>
