<?xml version="1.0" standalone="no"?>
<!DOCTYPE svg PUBLIC "-//W3C//DTD SVG 20010904//EN"
 "http://www.w3.org/TR/2001/REC-SVG-20010904/DTD/svg10.dtd">
<svg version="1.0" xmlns="http://www.w3.org/2000/svg"
 width="1280.000000pt" height="828.000000pt" viewBox="0 0 1280.000000 828.000000"
 preserveAspectRatio="xMidYMid meet">
<g transform="translate(0.000000,828.000000) scale(0.100000,-0.100000)"
fill="#000000" stroke="none">
<path d="M8410 7514 c-852 -490 -1436 -874 -1958 -1289 -90 -72 -212 -167
-272 -212 -113 -86 -163 -144 -205 -236 -43 -93 -55 -176 -65 -442 -12 -326
-24 -395 -86 -515 -55 -107 -67 -117 -174 -144 -52 -12 -220 -47 -373 -77
-208 -40 -282 -51 -295 -43 -53 34 -79 148 -45 204 36 62 145 90 256 67 l37
-8 0 49 c0 83 -17 100 -228 237 -88 57 -117 103 -109 173 7 63 25 77 100 77
54 0 76 -7 172 -52 116 -56 149 -63 159 -37 13 33 5 101 -18 149 -26 55 -57
87 -156 160 -92 68 -139 114 -162 159 -17 34 -18 45 -9 76 26 86 85 95 254 36
60 -21 115 -35 123 -32 18 7 18 97 0 149 -32 89 -113 168 -239 232 -34 18 -62
38 -62 45 0 7 12 22 27 33 21 16 53 23 138 30 124 12 127 14 90 87 -23 45 -71
80 -186 138 -44 22 -96 53 -114 69 -33 28 -81 120 -94 180 -20 92 58 188 239
292 157 91 177 113 113 126 -71 14 -68 10 -67 93 0 42 4 111 8 152 4 41 7 78
5 81 -2 4 -43 -13 -91 -37 -49 -23 -177 -70 -287 -104 -205 -63 -298 -100
-376 -150 -82 -53 -242 -58 -555 -18 -128 16 -329 16 -395 -1 -111 -28 -222
-105 -265 -186 -11 -19 -26 -37 -34 -40 -7 -3 -71 -10 -140 -15 -451 -36 -673
-103 -835 -251 -64 -59 -130 -145 -121 -159 5 -8 29 -7 245 16 254 27 413 18
488 -28 18 -11 58 -56 88 -99 30 -42 71 -91 92 -107 20 -17 34 -33 31 -37 -19
-18 -721 -34 -833 -19 -26 4 -46 12 -46 19 0 7 28 27 63 45 34 18 65 38 69 44
10 14 -20 36 -49 36 -45 0 -331 79 -453 125 -69 26 -194 80 -277 120 -173 83
-171 83 -129 -27 125 -333 402 -636 701 -765 62 -27 66 -19 31 68 -44 106 -49
102 117 95 78 -3 257 -11 397 -16 347 -14 335 -12 354 -60 8 -21 24 -103 36
-182 28 -193 43 -243 90 -290 62 -62 70 -56 125 87 26 69 54 130 61 136 10 8
19 1 40 -31 16 -24 34 -40 43 -38 9 2 31 32 51 68 71 130 212 250 312 266 36
6 36 6 57 -50 11 -31 21 -59 21 -61 0 -2 -23 -30 -51 -62 -65 -74 -112 -168
-184 -368 -63 -175 -100 -256 -150 -325 -47 -66 -60 -94 -89 -202 -29 -110
-54 -166 -95 -209 -24 -24 -29 -40 -34 -102 -4 -40 -23 -129 -43 -198 -20 -68
-49 -171 -65 -229 -47 -174 -36 -313 32 -421 36 -57 36 -76 0 -125 -102 -142
-265 -117 -578 88 -94 61 -105 72 -133 128 -28 55 -98 137 -156 181 -15 12
-24 33 -29 70 -14 108 -56 279 -110 439 -30 90 -55 173 -55 185 1 13 32 44 97
94 102 79 153 144 153 195 0 17 9 83 20 146 25 143 25 193 1 247 -20 42 -61
78 -82 71 -6 -2 -26 -46 -45 -97 -37 -105 -71 -155 -120 -179 -46 -22 -54 -10
-41 61 21 112 -26 272 -108 373 -65 78 -193 144 -282 144 -45 0 -43 -21 7 -60
118 -93 127 -213 44 -597 -7 -36 -20 -27 -44 30 -33 77 -104 180 -158 228 -85
75 -223 124 -313 111 -48 -7 -47 -28 6 -78 66 -64 91 -126 121 -304 28 -169
39 -207 77 -273 25 -42 105 -107 132 -107 29 0 34 -25 25 -130 -25 -274 -34
-340 -57 -419 -32 -113 -65 -172 -140 -252 -72 -76 -85 -102 -112 -229 -31
-140 -65 -182 -164 -198 -32 -6 -42 -12 -42 -27 0 -33 42 -46 135 -42 96 4
155 26 259 96 72 49 99 91 153 239 44 120 81 185 105 180 9 -2 32 -46 57 -109
103 -254 224 -442 368 -571 146 -130 238 -221 308 -303 193 -227 360 -560 416
-826 9 -46 21 -88 26 -94 20 -23 106 116 199 318 35 78 72 145 83 153 53 34
196 56 371 58 l170 1 3 -33 c4 -39 -30 -116 -88 -201 -46 -68 -70 -128 -70
-174 0 -19 -18 -58 -49 -107 -53 -82 -91 -179 -91 -231 0 -92 -143 -259 -279
-327 -151 -76 -270 -80 -414 -17 -257 114 -405 155 -564 158 l-104 2 -33 -36
c-31 -33 -67 -132 -53 -145 3 -3 33 7 67 22 70 31 99 27 133 -18 25 -33 36
-126 16 -132 -8 -2 -53 -9 -101 -15 -114 -15 -192 -46 -244 -96 -39 -38 -84
-128 -71 -142 4 -3 42 5 84 17 91 28 210 32 263 11 86 -35 117 -82 64 -95 -92
-23 -184 -147 -200 -270 -6 -40 -4 -46 12 -46 10 0 43 20 73 44 120 93 172
107 254 64 59 -30 183 -36 263 -13 72 21 157 62 244 118 l64 42 173 -3 173 -2
76 40 c116 61 183 52 329 -46 44 -29 97 -60 117 -68 51 -22 137 -20 254 5 120
24 224 27 282 5 l42 -15 0 37 c-1 53 -30 111 -79 155 -72 65 -142 88 -401 132
-85 15 -163 31 -172 36 -25 14 -22 46 12 140 67 185 153 300 445 599 121 124
243 254 270 288 52 64 71 75 82 45 29 -85 105 -269 149 -360 77 -165 79 -164
199 125 110 262 190 330 405 342 131 8 163 20 350 127 160 92 278 127 355 105
28 -8 31 -13 37 -67 17 -130 92 -232 263 -355 45 -32 93 -77 108 -99 35 -53
123 -95 252 -121 55 -11 125 -27 155 -36 55 -16 130 -60 137 -80 8 -25 -66
-112 -151 -177 -50 -38 -107 -83 -127 -102 -23 -20 -53 -36 -76 -40 -21 -4
-96 -20 -167 -37 -259 -60 -360 -32 -561 153 -146 136 -164 143 -319 134 -225
-13 -314 -64 -341 -193 -9 -42 6 -42 85 -2 98 49 126 43 193 -44 34 -43 80
-68 211 -112 113 -38 179 -74 203 -110 24 -37 5 -49 -71 -48 -50 1 -82 10
-147 39 -180 80 -181 81 -327 67 -161 -14 -231 -38 -289 -98 -38 -39 -73 -116
-73 -161 0 -27 30 -24 93 11 35 20 74 36 86 36 25 0 179 -104 188 -126 3 -8
-11 -32 -30 -53 -44 -49 -60 -99 -55 -167 7 -78 19 -85 67 -41 48 43 93 57
186 57 107 0 184 16 237 49 123 77 255 101 547 101 108 0 235 5 282 11 l87 10
122 -61 c236 -118 361 -143 492 -99 l62 21 77 -41 c42 -23 81 -41 88 -41 18 0
12 52 -13 105 -54 117 -206 193 -471 236 -42 6 -78 16 -81 20 -6 10 23 24 131
65 345 132 670 388 873 687 36 53 72 97 80 97 7 0 100 -29 205 -64 235 -78
243 -80 251 -60 8 21 -10 139 -29 194 -21 60 -57 113 -98 144 -23 18 -100 45
-243 85 -351 100 -487 162 -539 246 -26 43 -30 57 -30 124 0 103 29 154 171
299 108 112 111 114 145 107 55 -12 119 -48 230 -131 57 -43 117 -86 134 -95
16 -10 129 -43 250 -75 206 -53 229 -57 355 -60 108 -2 144 -7 180 -23 62 -27
146 -39 350 -50 196 -11 249 -23 326 -76 79 -55 99 -91 118 -220 40 -265 32
-397 -35 -532 -31 -62 -41 -95 -43 -140 -5 -110 -75 -215 -181 -271 -44 -23
-62 -27 -145 -27 -87 0 -101 3 -163 32 -79 37 -117 66 -237 173 -132 119 -189
160 -218 160 -44 -1 -197 -37 -251 -61 -62 -26 -118 -85 -127 -134 -3 -20 -4
-38 -2 -41 3 -2 32 3 65 11 95 24 172 0 213 -68 24 -39 19 -45 -65 -77 -217
-84 -325 -182 -325 -293 0 -30 4 -37 19 -37 11 0 32 11 48 24 37 30 87 56 115
58 13 1 44 -4 70 -11 47 -13 59 -13 336 5 73 5 102 3 102 -5 0 -6 -39 -31 -87
-55 -163 -81 -256 -165 -307 -276 -32 -68 -34 -110 -7 -110 11 0 52 18 93 39
83 44 164 71 218 71 60 0 140 29 229 82 184 110 247 122 369 69 121 -52 211
-48 406 18 152 52 232 39 429 -71 l108 -60 44 12 c71 20 199 9 266 -23 31 -15
59 -27 62 -27 4 0 7 18 7 40 0 92 -71 169 -219 237 -53 25 -128 60 -167 78
-123 57 -193 139 -194 227 0 20 18 108 39 196 106 431 127 761 65 1056 -8 38
-11 73 -6 78 4 4 42 -16 84 -46 107 -74 188 -108 268 -113 112 -7 137 25 90
117 -54 106 -388 337 -825 571 -267 143 -319 173 -314 184 2 6 73 24 159 41
457 93 800 253 1067 499 151 139 245 279 295 435 20 66 23 95 23 235 0 144 -3
171 -29 270 -35 136 -32 179 24 336 23 63 55 152 71 199 16 46 33 88 38 93 5
5 27 -12 52 -39 114 -122 200 -189 317 -246 61 -30 87 -37 95 -29 8 8 -1 45
-31 138 -102 309 -126 484 -127 933 0 190 4 402 8 473 8 123 8 127 -11 127
-13 0 -52 -39 -113 -112 -194 -235 -344 -395 -716 -766 -211 -211 -382 -389
-380 -395 7 -22 73 -27 311 -25 175 2 241 -1 243 -9 5 -14 -103 -244 -118
-254 -6 -3 -46 9 -89 28 -43 19 -123 46 -177 60 -86 23 -118 26 -258 27 -189
0 -255 -13 -391 -79 -98 -47 -198 -133 -247 -211 -59 -95 -75 -254 -37 -377
54 -173 183 -282 398 -334 88 -21 295 -21 424 1 54 9 102 16 108 16 40 0 -38
-85 -124 -135 -116 -68 -285 -105 -476 -105 -144 0 -380 25 -476 49 -262 67
-506 94 -826 94 -222 -1 -248 1 -248 15 0 25 157 174 225 214 154 89 279 122
477 122 82 1 148 2 148 3 0 1 -31 62 -69 135 -38 73 -76 157 -85 187 -45 155
10 371 144 566 29 41 97 117 151 169 146 140 314 245 528 328 47 18 86 38 88
45 2 6 -41 33 -99 61 -112 54 -182 112 -212 176 -52 111 31 311 202 483 37 38
137 127 222 198 156 130 290 257 290 274 0 20 -225 -63 -686 -252 -559 -231
-897 -351 -1019 -364 -91 -9 -192 53 -243 151 -26 48 -27 58 -26 186 0 120 3
144 28 220 15 47 49 128 74 180 26 52 48 98 50 103 10 22 -46 -1 -148 -59z
m-4866 -974 c89 -22 181 -69 221 -110 l28 -29 -24 -10 c-40 -17 -390 -71 -457
-71 -68 0 -83 11 -62 49 9 18 17 20 50 15 36 -6 40 -4 46 20 6 24 11 27 43 24
l36 -3 3 55 c3 51 15 80 32 80 4 0 42 -9 84 -20z m6787 -1546 c89 -26 179 -89
179 -125 0 -10 -21 -34 -46 -53 -109 -83 -260 -105 -367 -53 -56 28 -107 83
-107 116 0 28 54 84 104 107 62 29 155 32 237 8z"/>
</g>
</svg>
